<?xml version="1.0" encoding="utf-8"?>
<svg width="1363" height="667" viewBox="0 0 1363 667" version="1.1" xmlns="http://www.w3.org/2000/svg">
  <title>Polygon 2.2</title>
  <desc>Created using Figma</desc>
  <g id="Canvas" transform="matrix(1, 0, 0, 1, 10207.073242, 2421.796875)">
    <g id="Polygon 2.2">
      <path d="M -9827.373 -1770.72 C -9793.352 -1751.09 -9751.445 -1751.09 -9717.424 -1770.72 L -8583.03 -2425.257 C -8563.03 -2436.803 -8563.03 -2465.682 -8583.03 -2477.227 L -9418.61 -2959.35 C -9427.89 -2964.7 -9439.32 -2964.7 -9448.59 -2959.35 L -10622.965 -2281.743 C -10642.975 -2270.197 -10642.975 -2241.318 -10622.965 -2229.773 L -9827.373 -1770.72 Z" style="fill: #570FB7;"/>
    </g>
  </g>
  <defs>
    <path id="path0_fill" d="M 840.627 31.7201C 874.648 12.09 916.555 12.09 950.576 31.7201L 2084.97 686.257C 2104.97 697.803 2104.97 726.682 2084.97 738.227L 1249.39 1220.35C 1240.11 1225.7 1228.68 1225.7 1219.41 1220.35L 45.0346 542.743C 25.0254 531.197 25.0254 502.318 45.0346 490.773L 840.627 31.7201Z"/>
  </defs>
</svg>
